<svg xmlns="http://www.w3.org/2000/svg" width="34" height="34" viewBox="0 0 34 34">
  <g id="tw" transform="translate(-210 -4667)">
    <g id="Ellipse_55" data-name="Ellipse 55" transform="translate(210 4667)" fill="#fff" stroke="#222" stroke-width="1">
      <circle cx="17" cy="17" r="17" stroke="none"/>
      <circle cx="17" cy="17" r="16.5" fill="none"/>
    </g>
    <g id="twitter_2_" data-name="twitter (2)" transform="translate(220 4630)">
      <g id="Group_3331" data-name="Group 3331" transform="translate(0 48)">
        <path id="Path_308" data-name="Path 308" d="M14.887,49.432a6.363,6.363,0,0,1-1.759.482,3.035,3.035,0,0,0,1.343-1.687,6.1,6.1,0,0,1-1.935.739,3.052,3.052,0,0,0-5.279,2.087,3.143,3.143,0,0,0,.071.7,8.639,8.639,0,0,1-6.291-3.192,3.053,3.053,0,0,0,.938,4.079A3.014,3.014,0,0,1,.6,52.26v.034a3.066,3.066,0,0,0,2.445,3,3.046,3.046,0,0,1-.8.1,2.7,2.7,0,0,1-.578-.052,3.081,3.081,0,0,0,2.852,2.126,6.132,6.132,0,0,1-3.784,1.3A5.717,5.717,0,0,1,0,58.726,8.592,8.592,0,0,0,4.682,60.1a8.627,8.627,0,0,0,8.687-8.685c0-.135,0-.265-.011-.395A6.089,6.089,0,0,0,14.887,49.432Z" transform="translate(0 -48)"/>
      </g>
    </g>
  </g>
</svg>
