<svg xmlns="http://www.w3.org/2000/svg" width="34" height="34" viewBox="0 0 34 34">
  <g id="you" transform="translate(-169 -4667)">
    <g id="Ellipse_20" data-name="Ellipse 20" transform="translate(169 4667)" fill="#fff" stroke="#222" stroke-width="1">
      <circle cx="17" cy="17" r="17" stroke="none"/>
      <circle cx="17" cy="17" r="16.5" fill="none"/>
    </g>
    <g id="youtube-logotype" transform="translate(172.933 4676)">
      <g id="Group_370" data-name="Group 370" transform="translate(7.067)">
        <path id="Path_204" data-name="Path 204" d="M19.706,38.767a1.625,1.625,0,0,0-1.39-1.264,43.212,43.212,0,0,0-4.816-.178,43.225,43.225,0,0,0-4.817.178,1.624,1.624,0,0,0-1.39,1.264,13.771,13.771,0,0,0-.227,3.04,13.769,13.769,0,0,0,.224,3.04,1.624,1.624,0,0,0,1.39,1.264,43.215,43.215,0,0,0,4.816.178,43.184,43.184,0,0,0,4.816-.178,1.625,1.625,0,0,0,1.39-1.264,13.779,13.779,0,0,0,.225-3.04A13.789,13.789,0,0,0,19.706,38.767Zm-8.971.755H9.8v4.947H8.94V39.522H8.026v-.81h2.71Zm2.349,4.947h-.778V44a1.246,1.246,0,0,1-.888.527.477.477,0,0,1-.5-.319,2.189,2.189,0,0,1-.069-.638V40.18h.777v3.158a2.42,2.42,0,0,0,.007.3c.019.121.078.182.182.182.156,0,.319-.12.491-.364V40.18h.778v4.29Zm2.953-1.287a3.427,3.427,0,0,1-.079.864.615.615,0,0,1-.621.482,1.059,1.059,0,0,1-.8-.475v.416h-.777V38.712h.777v1.88a1.053,1.053,0,0,1,.8-.465.615.615,0,0,1,.621.484,3.294,3.294,0,0,1,.079.862Zm2.933-.716H17.416v.76c0,.4.13.6.4.6a.334.334,0,0,0,.347-.312,4.89,4.89,0,0,0,.017-.527h.793V43.1c0,.251-.01.423-.017.5a1.108,1.108,0,0,1-.181.466,1.076,1.076,0,0,1-.94.465,1.113,1.113,0,0,1-.941-.439,1.662,1.662,0,0,1-.25-1.009v-1.5a1.669,1.669,0,0,1,.24-1.011,1.1,1.1,0,0,1,.931-.44,1.08,1.08,0,0,1,.917.44,1.686,1.686,0,0,1,.241,1.011v.888Z" transform="translate(-7.067 -31.054)"/>
        <path id="Path_205" data-name="Path 205" d="M69.047,58.163q-.39,0-.39.6v.4h.777v-.4C69.434,58.361,69.3,58.163,69.047,58.163Z" transform="translate(-58.308 -48.39)"/>
        <path id="Path_206" data-name="Path 206" d="M51.893,58.163a.557.557,0,0,0-.388.189v2.614a.554.554,0,0,0,.388.192c.224,0,.338-.192.338-.579V58.748C52.231,58.361,52.117,58.163,51.893,58.163Z" transform="translate(-44.038 -48.39)"/>
        <path id="Path_207" data-name="Path 207" d="M53.546,13.215a1.262,1.262,0,0,0,.9-.532v.473h.786V8.82h-.786v3.313c-.174.246-.339.368-.5.368-.105,0-.167-.062-.184-.184a1.822,1.822,0,0,1-.01-.305V8.82H52.97v3.428a2.19,2.19,0,0,0,.07.645A.482.482,0,0,0,53.546,13.215Z" transform="translate(-45.257 -7.338)"/>
        <path id="Path_208" data-name="Path 208" d="M18.448,3.461V5.817h.871V3.461L20.367,0h-.881l-.594,2.284L18.274,0h-.917c.184.539.375,1.081.558,1.621A14.33,14.33,0,0,1,18.448,3.461Z" transform="translate(-15.628)"/>
        <path id="Path_209" data-name="Path 209" d="M36.473,12.955a1.071,1.071,0,0,0,.916-.444,1.7,1.7,0,0,0,.244-1.019V9.974a1.7,1.7,0,0,0-.244-1.021,1.165,1.165,0,0,0-1.831,0,1.685,1.685,0,0,0-.246,1.021v1.518a1.68,1.68,0,0,0,.246,1.019A1.071,1.071,0,0,0,36.473,12.955ZM36.1,9.816c0-.4.122-.6.375-.6s.375.2.375.6V11.64c0,.4-.121.6-.375.6s-.375-.2-.375-.6Z" transform="translate(-30.567 -7.078)"/>
      </g>
    </g>
  </g>
</svg>
